<svg xmlns="http://www.w3.org/2000/svg" viewBox="0 0 500.03 185.79"><defs><style>.cls-1{fill:#a6cf45;}.cls-2{fill:#a1c540;stroke:#fff;}.cls-2,.cls-3,.cls-4{stroke-miterlimit:10;}.cls-14,.cls-15,.cls-16,.cls-17,.cls-3{fill:#12a085;}.cls-3,.cls-4{stroke:#12a085;stroke-width:8px;}.cls-4{fill:none;}.cls-5{font-size:70px;font-family:Bellota-BoldItalic, Bellota;font-weight:700;font-style:italic;letter-spacing:-0.03em;}.cls-10,.cls-5{fill:#231f20;}.cls-6{letter-spacing:-0.05em;}.cls-7{letter-spacing:-0.04em;}.cls-8{letter-spacing:-0.02em;}.cls-9{letter-spacing:-0.06em;}.cls-10{font-size:36px;font-family:Bellota-Light, Bellota;letter-spacing:-0.06em;opacity:0.71;}.cls-11{letter-spacing:-0.03em;}.cls-12,.cls-16{letter-spacing:-0.03em;}.cls-13,.cls-15{letter-spacing:-0.05em;}.cls-14{letter-spacing:-0.02em;}.cls-17{letter-spacing:-0.1em;}.cls-18{letter-spacing:-0.1em;}</style></defs><title>tH_full</title><g id="Layer_2" data-name="Layer 2"><g id="Layer_1-2" data-name="Layer 1"><path class="cls-1" d="M82,106c-2.66-2-.64-8.61,1.43-12.46,4.14-7.69,15.06-16.82,20.37-12.73,3.2,2.46-.4,13.4-7.46,19.77C90.89,105.53,83.41,107,82,106Z"/><path class="cls-2" d="M101.77,79.64c3.69-2-14.64,15.49-20.17,26.1"/><path class="cls-3" d="M121.45,131.07h0a6.85,6.85,0,0,1-10.16-6.18V40.73a7,7,0,0,1,5.34-6.9h0a6.9,6.9,0,0,1,8.35,6.9v84.16A7.11,7.11,0,0,1,121.45,131.07Z"/><path class="cls-3" d="M71,151.24h0a6.85,6.85,0,0,1-10.16-6.18V60.89A7,7,0,0,1,66.15,54h0a6.9,6.9,0,0,1,8.35,6.9v84.16A7.11,7.11,0,0,1,71,151.24Z"/><path class="cls-4" d="M162.28,52.78,173,92.94a27.22,27.22,0,0,1-2.72,20.66l-20.78,36A27.22,27.22,0,0,1,133,162.28L92.85,173a27.22,27.22,0,0,1-20.66-2.72l-36-20.78A27.22,27.22,0,0,1,23.51,133L12.75,92.85a27.22,27.22,0,0,1,2.72-20.66l20.78-36A27.22,27.22,0,0,1,52.78,23.51L92.94,12.75a27.22,27.22,0,0,1,20.66,2.72l36,20.78A27.22,27.22,0,0,1,162.28,52.78Z"/><path class="cls-4" d="M168.54,48l12.32,46a27.22,27.22,0,0,1-2.72,20.66l-23.8,41.23a27.22,27.22,0,0,1-16.53,12.68l-46,12.32a27.22,27.22,0,0,1-20.66-2.72l-41.23-23.8a27.22,27.22,0,0,1-12.68-16.53l-12.32-46A27.22,27.22,0,0,1,7.65,71.16l23.8-41.23A27.22,27.22,0,0,1,48,17.25L94,4.93a27.22,27.22,0,0,1,20.66,2.72l41.23,23.8A27.22,27.22,0,0,1,168.54,48Z"/><text class="cls-5" transform="translate(200.36 100.01) scale(0.89 1)">t<tspan class="cls-6" x="25.13" y="0">r</tspan><tspan class="cls-7" x="47.39" y="0">ee</tspan><tspan class="cls-8" x="116.13" y="0">H</tspan><tspan class="cls-9" x="164.01" y="0">ud</tspan><tspan x="244.44" y="0">d</tspan><tspan class="cls-6" x="286.37" y="0">l</tspan><tspan class="cls-8" x="302.33" y="0">e</tspan></text><text class="cls-10" transform="translate(201.71 133.99) scale(0.89 1)">d<tspan class="cls-11" x="19.8" y="0">o</tspan><tspan class="cls-12" x="40.18" y="0">n’t str</tspan><tspan class="cls-13" x="125.67" y="0">u</tspan><tspan class="cls-12" x="145.87" y="0">gg</tspan><tspan class="cls-13" x="182.52" y="0">l</tspan><tspan class="cls-12" x="189.39" y="0">e, </tspan><tspan class="cls-14" x="221.43" y="0">H</tspan><tspan class="cls-15" x="245.52" y="0">ud</tspan><tspan class="cls-16" x="285.51" y="0">d</tspan><tspan class="cls-15" x="306.39" y="0">l</tspan><tspan class="cls-17" x="313.27" y="0">e</tspan><tspan class="cls-18" x="328.1" y="0">.</tspan></text></g></g></svg>