<svg xmlns="http://www.w3.org/2000/svg" viewBox="0 0 185.79 185.79"><defs><style>.cls-1{fill:#a6cf45;}.cls-2{fill:#a1c540;stroke:#fff;}.cls-2,.cls-3,.cls-4{stroke-miterlimit:10;}.cls-3{fill:#12a085;}.cls-3,.cls-4{stroke:#12a085;stroke-width:8px;}.cls-4{fill:none;}</style></defs><title>th_logo_small_turq</title><g id="Layer_2" data-name="Layer 2"><g id="Layer_1-2" data-name="Layer 1"><path class="cls-1" d="M82.05,96.38c-2.66-2-.64-8.61,1.43-12.46,4.14-7.69,15.06-16.82,20.37-12.73,3.2,2.46-.4,13.4-7.46,19.77C90.91,95.92,83.42,97.43,82.05,96.38Z"/><path class="cls-2" d="M101.79,70c3.69-2-14.64,15.49-20.17,26.1"/><path class="cls-3" d="M121.45,128.7h0a6.85,6.85,0,0,1-10.16-6.18V38.35a7,7,0,0,1,5.34-6.9h0a6.9,6.9,0,0,1,8.35,6.9v84.16A7.11,7.11,0,0,1,121.45,128.7Z"/><path class="cls-3" d="M71,148.86h0a6.85,6.85,0,0,1-10.16-6.18V58.52a7,7,0,0,1,5.34-6.9h0a6.9,6.9,0,0,1,8.35,6.9v84.16A7.11,7.11,0,0,1,71,148.86Z"/><path class="cls-4" d="M162.28,52.78,173,92.94a27.22,27.22,0,0,1-2.72,20.66l-20.78,36A27.22,27.22,0,0,1,133,162.28L92.85,173a27.22,27.22,0,0,1-20.66-2.72l-36-20.78A27.22,27.22,0,0,1,23.51,133L12.75,92.85a27.22,27.22,0,0,1,2.72-20.66l20.78-36A27.22,27.22,0,0,1,52.78,23.51L92.94,12.75a27.22,27.22,0,0,1,20.66,2.72l36,20.78A27.22,27.22,0,0,1,162.28,52.78Z"/><path class="cls-4" d="M168.54,48l12.32,46a27.22,27.22,0,0,1-2.72,20.66l-23.8,41.23a27.22,27.22,0,0,1-16.53,12.68l-46,12.32a27.22,27.22,0,0,1-20.66-2.72l-41.23-23.8a27.22,27.22,0,0,1-12.68-16.53l-12.32-46A27.22,27.22,0,0,1,7.65,71.16l23.8-41.23A27.22,27.22,0,0,1,48,17.25L94,4.93a27.22,27.22,0,0,1,20.66,2.72l41.23,23.8A27.22,27.22,0,0,1,168.54,48Z"/></g></g></svg>