<svg xmlns="http://www.w3.org/2000/svg" viewBox="0 0 360.02 360.02"><defs><style>.cls-1{fill:#a6cf45;}.cls-2{fill:#a1c540;stroke:#fff;}.cls-2,.cls-3,.cls-4,.cls-5{stroke-miterlimit:10;}.cls-3{fill:#616c96;}.cls-3,.cls-4,.cls-5{stroke:#616c96;stroke-width:8px;}.cls-4{fill:#626c96;}.cls-5{fill:none;}</style></defs><title>tH_octfinal</title><g id="Layer_2" data-name="Layer 2"><g id="Layer_1-2" data-name="Layer 1"><path class="cls-1" d="M158.78,186.84c-5.2-4-1.25-16.87,2.81-24.4,8.12-15.05,29.49-32.95,39.9-24.93,6.26,4.82-.79,26.25-14.61,38.71C176.12,185.94,161.46,188.89,158.78,186.84Z"/><path class="cls-2" d="M197.43,135.23c7.22-4-28.66,30.34-39.51,51.13"/><path class="cls-3" d="M235.94,250.13h0C227,255.25,216,248.57,216,238V73.19a13.76,13.76,0,0,1,10.45-13.51h0c8.38-2,16.35,4.63,16.35,13.51V238A13.93,13.93,0,0,1,235.94,250.13Z"/><path class="cls-4" d="M137.08,289.63h0c-8.93,5.12-19.9-1.56-19.9-12.11V112.69a13.76,13.76,0,0,1,10.45-13.51h0c8.38-2,16.35,4.63,16.35,13.51V277.52A13.93,13.93,0,0,1,137.08,289.63Z"/><path class="cls-5" d="M313.1,91l26.67,99.52A27.22,27.22,0,0,1,337,211.19l-51.52,89.23A27.22,27.22,0,0,1,269,313.1l-99.52,26.67A27.22,27.22,0,0,1,148.83,337L59.6,285.53A27.22,27.22,0,0,1,46.92,269L20.25,169.48A27.22,27.22,0,0,1,23,148.83L74.49,59.6A27.22,27.22,0,0,1,91,46.92l99.52-26.67A27.22,27.22,0,0,1,211.19,23l89.23,51.52A27.22,27.22,0,0,1,313.1,91Z"/><path class="cls-5" d="M325.36,81.61l29.73,110.95a27.22,27.22,0,0,1-2.72,20.66l-57.43,99.47a27.22,27.22,0,0,1-16.53,12.68L167.47,355.09a27.22,27.22,0,0,1-20.66-2.72L47.34,294.94a27.22,27.22,0,0,1-12.68-16.53L4.93,167.47a27.22,27.22,0,0,1,2.72-20.66L65.08,47.34A27.22,27.22,0,0,1,81.61,34.66L192.55,4.93a27.22,27.22,0,0,1,20.66,2.72l99.47,57.43A27.22,27.22,0,0,1,325.36,81.61Z"/></g></g></svg>