<svg xmlns="http://www.w3.org/2000/svg" viewBox="0 0 373.19 373.19"><defs><style>.cls-1{fill:#abd037;stroke-width:3px;}.cls-1,.cls-2,.cls-3{stroke:#fff;stroke-miterlimit:10;}.cls-2{fill:#fff;stroke-width:8px;}.cls-3{fill:none;stroke-width:24px;}</style></defs><title>tH_trans_big</title><g id="Layer_2" data-name="Layer 2"><g id="Layer_1-2" data-name="Layer 1"><path class="cls-1" d="M165.37,193.43c-5.2-4-1.25-16.87,2.81-24.4,8.12-15.05,29.49-32.95,39.9-24.93,6.26,4.82-.79,26.25-14.61,38.71C182.71,192.52,168,195.48,165.37,193.43Z"/><path class="cls-1" d="M204,141.82c7.22-4-28.66,30.34-39.51,51.13"/><path class="cls-2" d="M242.52,256.72h0c-8.93,5.12-19.9-1.56-19.9-12.11V79.78a13.76,13.76,0,0,1,10.45-13.51h0c8.38-2,16.35,4.63,16.35,13.51V244.61A13.93,13.93,0,0,1,242.52,256.72Z"/><path class="cls-2" d="M143.67,296.22h0c-8.93,5.12-19.9-1.56-19.9-12.11V119.28a13.76,13.76,0,0,1,10.45-13.51h0c8.38-2,16.35,4.63,16.35,13.51V284.11A13.93,13.93,0,0,1,143.67,296.22Z"/><path class="cls-3" d="M334,95.92l25.58,95.48A46.55,46.55,0,0,1,355,226.73l-49.43,85.61A46.55,46.55,0,0,1,277.27,334l-95.48,25.58A46.55,46.55,0,0,1,146.47,355L60.86,305.53a46.55,46.55,0,0,1-21.69-28.26L13.59,181.78a46.55,46.55,0,0,1,4.65-35.32L67.66,60.86A46.55,46.55,0,0,1,95.92,39.17l95.48-25.58a46.55,46.55,0,0,1,35.32,4.65l85.61,49.43A46.55,46.55,0,0,1,334,95.92Z"/></g></g></svg>